<svg width="14" height="15" viewBox="0 0 14 15" fill="none" xmlns="http://www.w3.org/2000/svg">
<path d="M13.5776 6.95402C9.84768 6.07015 8.36823 4.31807 7.53023 0.444715C7.50438 0.318883 7.43762 0.206064 7.3411 0.125116C7.24459 0.0441681 7.12417 0 7 0C6.87583 0 6.75542 0.0441681 6.65891 0.125116C6.5624 0.206064 6.49563 0.318883 6.46978 0.444715C5.64258 4.31807 4.16097 6.07015 0.422374 6.95402C0.302549 6.98172 0.195408 7.05089 0.118628 7.15015C0.041847 7.2494 0 7.3728 0 7.5C0 7.62719 0.041847 7.7506 0.118628 7.84985C0.195408 7.94911 0.302549 8.01828 0.422374 8.04598C4.15017 8.92985 5.63178 10.6819 6.46978 14.5553C6.49563 14.6811 6.5624 14.7939 6.65891 14.8749C6.75542 14.9558 6.87583 15 7 15C7.12417 15 7.24459 14.9558 7.3411 14.8749C7.43762 14.7939 7.50438 14.6811 7.53023 14.5553C8.35743 10.6819 9.83689 8.92985 13.5776 8.04598C13.6975 8.01828 13.8046 7.94911 13.8814 7.84985C13.9582 7.7506 14 7.62719 14 7.5C14 7.3728 13.9582 7.2494 13.8814 7.15015C13.8046 7.05089 13.6975 6.98172 13.5776 6.95402Z" fill="white"/>
</svg>
