<svg width="25" height="22" viewBox="0 0 25 22" fill="none" xmlns="http://www.w3.org/2000/svg">
<path d="M23.3071 2.80011H21.748C21.4143 1.20896 19.9704 0 18.2448 0C16.5193 0 15.0754 1.20896 14.7417 2.80011H10.3844C10.0507 1.20896 8.60678 0 6.88125 0C5.15571 0 3.71178 1.20896 3.37812 2.80011H1.81904C0.861793 2.80011 0 3.53045 0 4.4687V20.2891C0 21.2273 0.861793 22 1.81904 22H23.3073C24.2645 22 25 21.2273 25 20.2891V4.4687C24.9999 3.53045 24.2644 2.80011 23.3071 2.80011ZM10.1731 18.1812H3.35496V10.0133H10.1731V18.1812ZM15.909 18.1812H12.6623V15.3172H15.909V18.1812ZM15.909 12.9835H12.6623V10.0133H15.909V12.9835ZM21.6449 18.1812H18.3982V15.3172H21.6449V18.1812ZM21.6449 12.9835H18.3982V10.0133H21.6449V12.9835Z" fill="#003595"/>
</svg>
