<svg width="21" height="21" viewBox="0 0 21 21" fill="none" xmlns="http://www.w3.org/2000/svg">
<circle cx="10.5" cy="10.5" r="10" stroke="white"/>
<path fill-rule="evenodd" clip-rule="evenodd" d="M14.7295 6.22029C15.0232 6.51401 15.0232 6.99022 14.7295 7.28394L11.5386 10.4748L14.7297 13.6659C15.0234 13.9596 15.0234 14.4358 14.7297 14.7295C14.4359 15.0232 13.9597 15.0232 13.666 14.7295L10.475 11.5385L7.28394 14.7295C6.99022 15.0232 6.51401 15.0232 6.22029 14.7295C5.92657 14.4358 5.92657 13.9596 6.22029 13.6659L9.41132 10.4748L6.22042 7.28394C5.9267 6.99022 5.9267 6.51401 6.22042 6.22029C6.51414 5.92657 6.99035 5.92657 7.28407 6.22029L10.475 9.41119L13.6659 6.22029C13.9596 5.92657 14.4358 5.92657 14.7295 6.22029Z" fill="white"/>
</svg>
