<svg width="16" height="15" viewBox="0 0 16 15" fill="none" xmlns="http://www.w3.org/2000/svg">
<path fill-rule="evenodd" clip-rule="evenodd" d="M14.4127 0.587347C15.1958 1.37048 15.1958 2.64018 14.4127 3.42331L10.4317 7.40423L14.6042 11.5767C15.3873 12.3598 15.3873 13.6295 14.6042 14.4127C13.8211 15.1958 12.5514 15.1958 11.7682 14.4127L7.59577 10.2402L3.42331 14.4127C2.64018 15.1958 1.37047 15.1958 0.587346 14.4127C-0.195782 13.6295 -0.195782 12.3598 0.587347 11.5767L4.75981 7.40423L0.778887 3.42331C-0.00424143 2.64018 -0.00424147 1.37048 0.778887 0.587347C1.56202 -0.195782 2.83172 -0.195782 3.61485 0.587346L7.59577 4.56827L11.5767 0.587346C12.3598 -0.195782 13.6295 -0.195782 14.4127 0.587347Z" fill="#003595"/>
</svg>
