<svg width="25" height="26" viewBox="0 0 25 26" fill="none" xmlns="http://www.w3.org/2000/svg">
<path fill-rule="evenodd" clip-rule="evenodd" d="M1.37476 21.7895C0.615524 22.5918 0.650412 23.8576 1.45268 24.6169C2.25495 25.3761 3.5208 25.3412 4.28004 24.5389L12.2229 16.1458L20.3953 25.0092C21.144 25.8212 22.4093 25.8726 23.2214 25.1238C24.0334 24.3751 24.0848 23.1098 23.336 22.2977L14.9788 13.2338L23.526 4.20199C24.2853 3.39972 24.2504 2.13387 23.4481 1.37464C22.6458 0.615402 21.38 0.650291 20.6208 1.45256L12.261 10.2862L4.35578 1.71252C3.60703 0.900458 2.34174 0.849133 1.52967 1.59788C0.717609 2.34663 0.666284 3.61192 1.41503 4.42399L9.50518 13.1982L1.37476 21.7895Z" fill="white"/>
</svg>
