<svg width="23" height="23" viewBox="0 0 23 23" fill="none" xmlns="http://www.w3.org/2000/svg">
<path fill-rule="evenodd" clip-rule="evenodd" d="M21.1788 0.8631C22.3296 2.0139 22.3296 3.87972 21.1788 5.03052L15.3293 10.88L21.4612 17.0118C22.612 18.1626 22.612 20.0285 21.4612 21.1793C20.3104 22.3301 18.4446 22.3301 17.2938 21.1793L11.1619 15.0474L5.03003 21.1793C3.87923 22.3301 2.01341 22.3301 0.862612 21.1793C-0.288189 20.0285 -0.288188 18.1626 0.862611 17.0118L6.99447 10.88L1.14501 5.03052C-0.00578776 3.87972 -0.00578784 2.0139 1.14501 0.8631C2.29581 -0.2877 4.16163 -0.2877 5.31243 0.8631L11.1619 6.71256L17.0114 0.8631C18.1622 -0.2877 20.028 -0.2877 21.1788 0.8631Z" fill="white"/>
</svg>
