<svg width="24" height="24" viewBox="0 0 24 24" fill="none" xmlns="http://www.w3.org/2000/svg">
<rect width="24" height="24" rx="10" fill="#003595"/>
<path d="M4.80029 12C4.80029 11.3373 5.33755 10.8 6.00029 10.8H18.0003C18.663 10.8 19.2003 11.3373 19.2003 12C19.2003 12.6628 18.663 13.2 18.0003 13.2H6.00029C5.33755 13.2 4.80029 12.6628 4.80029 12Z" fill="white"/>
<path d="M12 4.79998C12.6627 4.79998 13.2 5.33724 13.2 5.99998L13.2 18C13.2 18.6627 12.6627 19.2 12 19.2C11.3372 19.2 10.8 18.6627 10.8 18L10.8 5.99998C10.8 5.33724 11.3372 4.79998 12 4.79998Z" fill="white"/>
</svg>
