<svg width="16" height="16" viewBox="0 0 16 16" fill="none" xmlns="http://www.w3.org/2000/svg">
<path d="M8.73984 9.06233L8.40702 8.5631L8.40702 8.5631L8.73984 9.06233ZM9.20531 8.75201L9.53813 9.25125V9.25124L9.20531 8.75201ZM14.4 8C14.4 11.5346 11.5346 14.4 8 14.4V15.6C12.1974 15.6 15.6 12.1974 15.6 8H14.4ZM8 14.4C4.46538 14.4 1.6 11.5346 1.6 8H0.4C0.4 12.1974 3.80264 15.6 8 15.6V14.4ZM1.6 8C1.6 4.46538 4.46538 1.6 8 1.6V0.4C3.80264 0.4 0.4 3.80264 0.4 8H1.6ZM8 1.6C11.5346 1.6 14.4 4.46538 14.4 8H15.6C15.6 3.80264 12.1974 0.4 8 0.4V1.6ZM7.78889 12.6667C7.78889 12.5501 7.88341 12.4556 8 12.4556V13.6556C8.54615 13.6556 8.98889 13.2128 8.98889 12.6667H7.78889ZM8 12.4556C8.11659 12.4556 8.21111 12.5501 8.21111 12.6667H7.01111C7.01111 13.2128 7.45385 13.6556 8 13.6556V12.4556ZM8.21111 12.6667C8.21111 12.7833 8.11659 12.8778 8 12.8778V11.6778C7.45385 11.6778 7.01111 12.1205 7.01111 12.6667H8.21111ZM8 12.8778C7.88341 12.8778 7.78889 12.7833 7.78889 12.6667H8.98889C8.98889 12.1205 8.54615 11.6778 8 11.6778V12.8778ZM8.6 11.1111V10.4447H7.4V11.1111H8.6ZM9.07266 9.56156L9.53813 9.25125L8.87249 8.25278L8.40702 8.5631L9.07266 9.56156ZM10.9333 6.64429V6.44444H9.73333V6.64429H10.9333ZM8 3.51111C6.37996 3.51111 5.06667 4.82441 5.06667 6.44444H6.26667C6.26667 5.48715 7.04271 4.71111 8 4.71111V3.51111ZM10.9333 6.44444C10.9333 4.82441 9.62004 3.51111 8 3.51111V4.71111C8.95729 4.71111 9.73333 5.48715 9.73333 6.44444H10.9333ZM9.53813 9.25124C10.4098 8.67015 10.9333 7.69187 10.9333 6.64429H9.73333C9.73333 7.29065 9.4103 7.89425 8.87249 8.25278L9.53813 9.25124ZM8.6 10.4447C8.6 10.0898 8.77737 9.75842 9.07266 9.56156L8.40702 8.5631C7.77789 8.98252 7.4 9.68861 7.4 10.4447H8.6Z" fill="white"/>
</svg>
