<svg width="11" height="11" viewBox="0 0 11 11" fill="none" xmlns="http://www.w3.org/2000/svg">
<path d="M6.23863 5.02606L9.7417 1.523C9.82907 1.44335 9.89942 1.34684 9.94849 1.23927C9.99757 1.13171 10.0244 1.01532 10.0272 0.897126C10.0301 0.778931 10.009 0.661375 9.96527 0.551545C9.9215 0.441716 9.85595 0.341886 9.77256 0.258073C9.68917 0.174261 9.58967 0.108201 9.48006 0.0638757C9.37046 0.0195505 9.25301 -0.00212229 9.1348 0.000163732C9.01659 0.00244975 8.90007 0.0286472 8.79226 0.0771771C8.68445 0.125707 8.58758 0.195564 8.50749 0.282538L5.00443 3.7856L1.50136 0.282538C1.33711 0.117462 1.11402 0.0243941 0.881151 0.0238076C0.648284 0.023221 0.424723 0.115164 0.259647 0.279411C0.0945709 0.443657 0.00150266 0.666752 0.000916093 0.899618C0.000329529 1.13248 0.0922727 1.35605 0.256519 1.52112L3.75959 5.02419L0.256519 8.52725C0.0922727 8.6915 0 8.91426 0 9.14654C0 9.37882 0.0922727 9.60159 0.256519 9.76583C0.420766 9.93008 0.643532 10.0224 0.875811 10.0224C1.10809 10.0224 1.33086 9.93008 1.4951 9.76583L4.99817 6.26277L8.50124 9.76583C8.66548 9.93008 8.88825 10.0224 9.12053 10.0224C9.35281 10.0224 9.57557 9.93008 9.73982 9.76583C9.90407 9.60159 9.99634 9.37882 9.99634 9.14654C9.99634 8.91426 9.90407 8.6915 9.73982 8.52725L6.23863 5.02606Z" fill="#FF0A0A"/>
</svg>
