<svg width="10" height="11" viewBox="0 0 10 11" fill="none" xmlns="http://www.w3.org/2000/svg">
<path d="M4.19019 10.9998C4.07146 10.9998 3.95396 10.976 3.84472 10.9299C3.73548 10.8838 3.63673 10.8163 3.55438 10.7315L0.216425 7.29098C0.0678813 7.1214 -0.00928042 6.9017 0.000891779 6.6773C0.011064 6.4529 0.107792 6.24095 0.271079 6.08528C0.434366 5.92961 0.651726 5.84211 0.878222 5.84088C1.10472 5.83965 1.32303 5.92478 1.48803 6.07867L4.01925 8.68532L8.32542 1.42898C8.44428 1.22881 8.63844 1.08367 8.86521 1.02548C9.09197 0.967297 9.33275 1.00083 9.53458 1.11871C9.73641 1.23658 9.88276 1.42914 9.94143 1.65403C10.0001 1.87892 9.96629 2.11771 9.84743 2.31788L4.95214 10.5707C4.883 10.6872 4.78764 10.7861 4.67351 10.8599C4.55938 10.9337 4.42957 10.9803 4.29426 10.9961C4.25969 10.9995 4.22492 11.0008 4.19019 10.9998Z" fill="#21FF44"/>
</svg>
