<svg width="30" height="29" viewBox="0 0 30 29" fill="none" xmlns="http://www.w3.org/2000/svg">
<path fill-rule="evenodd" clip-rule="evenodd" d="M2.10883 2.03854C0 4.07708 0 7.35805 0 13.92V15.08C0 21.6419 0 24.9229 2.10883 26.9615C4.21767 29 7.61178 29 14.4 29H15.6C22.3882 29 25.7823 29 27.8912 26.9615C30 24.9229 30 21.6419 30 15.08V13.92C30 7.35805 30 4.07708 27.8912 2.03854C25.7823 0 22.3882 0 15.6 0H14.4C7.61178 0 4.21767 0 2.10883 2.03854ZM5.06256 8.8209C5.22504 16.3609 9.12501 20.8921 15.9625 20.8921H16.3501V16.5784C18.8626 16.82 20.7625 18.5963 21.5249 20.8921H25.0751C24.1001 17.4605 21.5374 15.5634 19.9374 14.8384C21.5374 13.9442 23.7875 11.7692 24.3249 8.8209H21.0998C20.3999 11.2134 18.3251 13.3884 16.3501 13.5938V8.8209H13.125V17.1825C11.125 16.6992 8.60004 14.3551 8.48754 8.8209H5.06256Z" fill="#0077FF"/>
</svg>
