<svg width="11" height="13" viewBox="0 0 11 13" fill="none" xmlns="http://www.w3.org/2000/svg">
<path d="M9.29599 3.50485C9.46619 3.29157 9.63013 3.09705 9.78226 2.8928C9.99483 2.60727 9.96913 2.35579 9.70377 2.13278C9.51829 1.97578 9.32656 1.82502 9.12788 1.68677C8.87016 1.50684 8.62286 1.53949 8.41932 1.77848C8.25468 1.97161 8.11436 2.18627 7.94416 2.37524C7.91147 2.40735 7.87191 2.4316 7.82846 2.44616C7.78501 2.46073 7.73882 2.46522 7.69339 2.4593C7.29951 2.33703 6.91257 2.19253 6.51244 2.05289V1.62981C6.70209 1.43251 6.92925 1.30537 6.95842 1.1435C7.02789 0.746821 7.10153 0.309844 6.71181 0H4.28046C3.78655 0.530069 3.87547 1.22965 4.48331 1.54852V2.05845C0.786261 2.72954 -1.02128 6.85616 0.593142 9.98864C2.0714 12.8523 5.6573 13.8742 8.37903 12.1756C9.76837 11.3093 10.6312 10.0581 10.909 8.44359C11.2439 6.52895 10.643 4.88803 9.29599 3.50485ZM9.48008 7.96285C9.26751 9.72882 7.94486 11.1585 6.18873 11.4364C4.59098 11.6872 3.24332 11.1752 2.28536 9.8622C1.32741 8.54919 1.24752 7.10626 1.96373 5.63555C2.01574 5.54807 2.07499 5.4651 2.14087 5.38753C2.23813 5.56121 2.29787 5.77796 2.43958 5.90093C3.04881 6.43169 3.68582 6.93119 4.30478 7.45223C4.41502 7.54845 4.50095 7.66938 4.55555 7.80515C4.76395 8.31993 5.21966 8.58601 5.74066 8.4693C5.97772 8.40822 6.18477 8.26363 6.32375 8.0621C6.46273 7.86057 6.52431 7.61564 6.49716 7.37234C6.42769 6.85686 6.00047 6.51089 5.45515 6.50047C5.28644 6.49668 5.12054 6.45639 4.96888 6.38237C4.24851 6.01625 3.54203 5.62582 2.81748 5.26457C2.66396 5.18884 2.45486 5.22358 2.27147 5.2076C2.32906 5.09742 2.39526 4.99196 2.46945 4.8922C3.02744 4.24125 3.77978 3.78678 4.61558 3.59579C5.45138 3.40479 6.32643 3.48736 7.11175 3.83133C7.89707 4.1753 8.55113 4.76248 8.97753 5.50631C9.40392 6.25015 9.5801 7.1113 9.48008 7.96285Z" fill="#949494"/>
</svg>
