<svg width="10" height="10" viewBox="0 0 10 10" fill="none" xmlns="http://www.w3.org/2000/svg">
<path d="M4.79979 0H5.20869C5.22137 0.00717293 5.23514 0.0122336 5.24946 0.0149835C5.64073 0.0256584 6.02876 0.0891644 6.40301 0.203776C7.43191 0.503039 8.33632 1.12707 8.98111 1.98262C9.40285 2.53678 9.70389 3.17304 9.86487 3.85048C10.0259 4.52792 10.0432 5.23154 9.91582 5.91609C9.74238 6.87132 9.29133 7.75433 8.61898 8.4549C8.18342 8.91616 7.66207 9.2881 7.08411 9.54989C6.64738 9.75286 6.18247 9.88865 5.70512 9.95265C5.593 9.96704 5.48149 9.98442 5.36997 10H4.63611C4.628 9.99371 4.61887 9.98885 4.60913 9.98561C4.38369 9.95265 4.15586 9.93167 3.93343 9.88612C3.1278 9.71863 2.37827 9.34833 1.75583 8.81031C0.820283 8.01515 0.211192 6.90284 0.0452869 5.68654C-0.0134451 5.24909 -0.0150575 4.80586 0.0404904 4.36799C0.0923797 3.94635 0.199833 3.53342 0.360055 3.13995C0.679592 2.33994 1.20295 1.63743 1.87814 1.10219C2.6308 0.492732 3.54744 0.120205 4.512 0.0317651C4.60793 0.0227749 4.70386 0.0107881 4.79979 0ZM5.00424 6.66826C5.10197 6.66826 5.20029 6.66826 5.29802 6.66826C5.33606 6.672 5.37418 6.66195 5.40543 6.63995C5.43669 6.61795 5.45899 6.58546 5.4683 6.5484C5.4852 6.48296 5.49644 6.41618 5.50187 6.34882C5.53305 6.06473 5.61519 5.79622 5.81304 5.58705C6.0109 5.37788 6.23933 5.1777 6.45877 4.97932C6.66322 4.79353 6.85508 4.60114 6.963 4.33863C7.09319 4.00751 7.13071 3.6472 7.07152 3.29637C7.00257 2.80551 6.77593 2.40156 6.35984 2.12466C5.75069 1.72011 5.08098 1.67396 4.39209 1.85796C4.10608 1.92859 3.84058 2.06517 3.61685 2.25677C3.39311 2.44837 3.21735 2.68966 3.10364 2.96134C2.98372 3.22505 2.95135 3.50794 2.92377 3.79083C2.92038 3.8167 2.92281 3.843 2.9309 3.86781C2.93899 3.89261 2.95253 3.9153 2.97052 3.9342C2.98851 3.9531 3.0105 3.96775 3.03488 3.97706C3.05926 3.98637 3.08542 3.99011 3.11143 3.98801C3.30149 3.98801 3.49215 3.98801 3.68281 3.98801C3.84109 3.98801 3.92263 3.92209 3.95201 3.76566C3.97839 3.6386 3.99818 3.50914 4.03415 3.38448C4.13488 3.03686 4.32794 2.76895 4.69726 2.67066C5.02702 2.58316 5.33579 2.61492 5.61039 2.83968C6.02529 3.1795 6.05526 3.87354 5.77647 4.27809C5.62358 4.49985 5.40055 4.64549 5.20689 4.8223C5.04481 4.95936 4.90238 5.11808 4.7836 5.29398C4.55517 5.66197 4.515 6.07312 4.509 6.49266C4.50904 6.5166 4.51397 6.54029 4.52351 6.56226C4.53304 6.58423 4.54696 6.60402 4.56443 6.62041C4.58189 6.6368 4.60253 6.64945 4.62506 6.65758C4.6476 6.6657 4.67155 6.66914 4.69547 6.66767C4.79679 6.66886 4.90051 6.66826 5.00424 6.66826ZM4.96946 7.31855C4.84476 7.31855 4.71945 7.31855 4.59414 7.31855C4.56979 7.31705 4.5454 7.32062 4.52251 7.32903C4.49961 7.33744 4.47871 7.35051 4.46113 7.36741C4.44355 7.38431 4.42966 7.40467 4.42036 7.42721C4.41106 7.44975 4.40653 7.47397 4.40708 7.49835C4.40708 7.7267 4.40708 7.95505 4.40708 8.1834C4.40506 8.2087 4.40859 8.23414 4.41742 8.25794C4.42625 8.28174 4.44017 8.30332 4.45822 8.32119C4.47626 8.33905 4.49798 8.35276 4.52187 8.36137C4.54576 8.36997 4.57125 8.37325 4.59654 8.37099C4.84715 8.37099 5.09777 8.37099 5.34778 8.37099C5.47369 8.37099 5.53725 8.30267 5.53785 8.1774C5.53785 7.95405 5.53785 7.7309 5.53785 7.50794C5.5406 7.48203 5.53751 7.45583 5.5288 7.43127C5.52009 7.40671 5.50599 7.38441 5.48753 7.36601C5.46906 7.34761 5.44671 7.33358 5.42212 7.32496C5.39752 7.31633 5.3713 7.31332 5.34539 7.31615C5.22008 7.31735 5.09657 7.31855 4.96946 7.31855Z" fill="#949494"/>
</svg>
